<svg width="21" height="21" viewBox="0 0 21 21" fill="none" xmlns="http://www.w3.org/2000/svg">
<path d="M1.5 7.95218V17.7669C1.5 18.8182 2.3522 19.6704 3.4035 19.6704H6.25876C7.31 19.6704 8.16226 18.8182 8.16226 17.7669V14.2771C8.16226 13.2259 9.01446 12.3736 10.0658 12.3736H11.652C12.7033 12.3736 13.5555 13.2259 13.5555 14.2771V17.7669C13.5555 18.8182 14.4077 19.6704 15.459 19.6704H18.3143C19.3655 19.6704 20.2178 18.8182 20.2178 17.7669V7.97147C20.2178 7.35029 19.9147 6.76826 19.4059 6.41205L11.8106 1.09532C11.146 0.6301 10.2596 0.637207 9.60258 1.11302L2.28709 6.4104C1.79269 6.76845 1.5 7.34179 1.5 7.95218Z" stroke="#A3A3A3" stroke-width="1.4"/>
</svg>
