<svg width="21" height="22" viewBox="0 0 21 22" fill="none" xmlns="http://www.w3.org/2000/svg">
<path d="M10.4939 10.5347C13.2887 10.5347 15.5543 8.40027 15.5543 5.76734C15.5543 3.13441 13.2887 1 10.4939 1C7.69918 1 5.43359 3.13441 5.43359 5.76734C5.43359 8.40027 7.69918 10.5347 10.4939 10.5347Z" stroke="#A3A3A3" stroke-width="1.4"/>
<mask id="mask0_887_17153" style="mask-type:luminance" maskUnits="userSpaceOnUse" x="0" y="12" width="21" height="10">
<path fill-rule="evenodd" clip-rule="evenodd" d="M18.977 21.6586C20.2185 21.6586 21.2538 20.6948 20.9449 19.5615C19.8369 15.5012 15.5809 12.4771 10.5004 12.4771C5.41904 12.4771 1.16387 15.5012 0.0550949 19.5615C-0.253773 20.6948 0.781534 21.6586 2.023 21.6586H18.977Z" fill="white"/>
</mask>
<g mask="url(#mask0_887_17153)">
<path d="M19.7635 20.0586C19.7456 20.1209 19.7084 20.1831 19.6471 20.2459L19.6468 20.2461C19.5108 20.3842 19.271 20.4993 18.9784 20.4993H2.02441C1.7318 20.4993 1.49195 20.3842 1.35592 20.2461C1.29457 20.1833 1.25744 20.1211 1.23958 20.0587C1.22185 19.9968 1.22138 19.9289 1.24229 19.8516C2.19547 16.3602 5.91439 13.6365 10.5018 13.6365C15.0885 13.6365 18.8074 16.3603 19.7606 19.8517L19.7606 19.8519C19.7818 19.929 19.7813 19.9968 19.7635 20.0586ZM22.1313 19.2714C20.8683 14.6422 16.076 11.3177 10.5018 11.3177C4.92753 11.3177 0.134502 14.6422 -1.12848 19.2714C-1.41087 20.3055 -1.07194 21.1968 -0.437231 21.8253C0.194645 22.451 1.12029 22.8181 2.02441 22.8181H18.9784C19.8825 22.8181 20.8082 22.451 21.4401 21.8253C22.0748 21.1968 22.4137 20.3055 22.1313 19.2714Z" fill="#A3A3A3" stroke="#A3A3A3" stroke-width="0.2"/>
<path fill-rule="evenodd" clip-rule="evenodd" d="M1.2862 20.316C1.15333 20.1801 1.10308 20.0293 1.13985 19.857C1.14209 19.8465 1.14464 19.836 1.14751 19.8254M18.9801 20.5992H18.7801ZM18.7801 20.5992H2.02613C1.70827 20.5992 1.44213 20.4744 1.2862 20.316M1.82613 22.712C0.189966 22.6124 -1.43791 21.3066 -1.07628 19.4924C-1.0742 19.4819 -1.07205 19.4714 -1.06983 19.4609C-1.05842 19.407 -1.04526 19.3526 -1.03028 19.2977C-1.01271 19.2333 -0.994437 19.1691 -0.975482 19.1052C0.336204 14.6824 4.92929 11.4964 10.3035 11.4191C10.37 11.4182 10.4367 11.4177 10.5035 11.4177C10.5703 11.4177 10.6369 11.4182 10.7035 11.4191C16.0777 11.4964 20.6701 14.6824 21.9818 19.1052C22.0007 19.1691 22.019 19.2333 22.0366 19.2977C22.0516 19.3526 22.0647 19.407 22.0761 19.461C22.0784 19.4715 22.0805 19.4819 22.0826 19.4924C22.4442 21.3066 20.8163 22.6124 19.1801 22.712C19.1134 22.716 19.0467 22.7181 18.9801 22.7181H1.82613V22.712ZM22.4225 19.1923C22.7368 20.3432 22.3549 21.3433 21.6529 22.0385C20.9622 22.7223 19.9596 23.1181 18.9801 23.1181H2.02613C1.04666 23.1181 0.0440316 22.7223 -0.646593 22.0384C-1.34857 21.3433 -1.73042 20.3432 -1.41617 19.1924C-0.111103 14.409 4.82018 11.0177 10.5035 11.0177C16.1868 11.0177 21.1174 14.409 22.4225 19.1923Z" fill="#A3A3A3"/>
</g>
</svg>
