<svg width="23" height="22" viewBox="0 0 23 22" fill="none" xmlns="http://www.w3.org/2000/svg">
<path d="M21.5404 5.82527C21.5404 6.99889 20.5646 8.20166 18.666 9.1415C16.7998 10.0651 14.1856 10.6505 11.2705 10.6505C8.35477 10.6505 5.74057 10.0651 3.87443 9.1415C1.97576 8.20166 1 6.99889 1 5.82527C1 4.65165 1.97576 3.44889 3.87443 2.50904C5.74057 1.58546 8.35477 1 11.2705 1C14.1856 1 16.7998 1.58546 18.666 2.50904C20.5646 3.44889 21.5404 4.65165 21.5404 5.82527Z" stroke="#A3A3A3" stroke-width="1.4"/>
<path d="M20.007 13.656L20.431 13.099L20.007 12.7762L19.583 13.099L20.007 13.656ZM18.666 14.4735L18.9765 15.1009L18.9765 15.1009L18.666 14.4735ZM18.666 19.4708L18.9765 20.0982L18.9765 20.0982L18.666 19.4708ZM3.87443 19.4708L3.56389 20.0982L3.56393 20.0982L3.87443 19.4708ZM2.53342 13.656L2.95743 13.099L2.53342 12.7762L2.1094 13.099L2.53342 13.656ZM3.87443 14.4735L3.56389 15.1009L3.56393 15.1009L3.87443 14.4735ZM19.583 13.099C19.2452 13.3562 18.8369 13.6079 18.3554 13.8462L18.9765 15.1009C19.5258 14.829 20.0122 14.5318 20.431 14.2129L19.583 13.099ZM22.2404 16.1546C22.2404 14.9986 21.5422 13.9449 20.431 13.099L19.583 14.2129C20.5027 14.9131 20.8404 15.6005 20.8404 16.1546H22.2404ZM18.9765 20.0982C20.9487 19.122 22.2404 17.7387 22.2404 16.1546H20.8404C20.8404 16.9177 20.1806 17.94 18.3554 18.8435L18.9765 20.0982ZM11.2705 21.6799C14.2697 21.6799 16.9946 21.0791 18.9765 20.0982L18.3555 18.8435C16.6051 19.7098 14.1016 20.2799 11.2705 20.2799V21.6799ZM3.56393 20.0982C5.5458 21.0791 8.27075 21.6799 11.2705 21.6799V20.2799C8.4388 20.2799 5.93534 19.7098 4.18492 18.8435L3.56393 20.0982ZM0.3 16.1546C0.3 17.7387 1.59173 19.122 3.56389 20.0982L4.18497 18.8435C2.3598 17.94 1.7 16.9177 1.7 16.1546H0.3ZM2.1094 13.099C0.998236 13.9449 0.3 14.9986 0.3 16.1546H1.7C1.7 15.6005 2.03767 14.9131 2.95743 14.2129L2.1094 13.099ZM4.18497 13.8462C3.70354 13.6079 3.29523 13.3562 2.95743 13.099L2.1094 14.2129C2.52821 14.5318 3.01462 14.829 3.56389 15.1009L4.18497 13.8462ZM11.2705 15.2826C8.4388 15.2826 5.93534 14.7125 4.18492 13.8462L3.56393 15.1009C5.5458 16.0818 8.27075 16.6826 11.2705 16.6826V15.2826ZM18.3555 13.8462C16.6051 14.7125 14.1016 15.2826 11.2705 15.2826V16.6826C14.2697 16.6826 16.9946 16.0817 18.9765 15.1009L18.3555 13.8462Z" fill="#A3A3A3"/>
<path d="M20.007 8.49995L20.431 7.94298L20.007 7.62019L19.583 7.94298L20.007 8.49995ZM18.666 9.31752L18.9765 9.94489L18.9765 9.94486L18.666 9.31752ZM18.666 14.3148L18.9765 14.9422L18.9765 14.9422L18.666 14.3148ZM3.87443 14.3148L3.56389 14.9422L3.56393 14.9422L3.87443 14.3148ZM2.53342 8.49995L2.95743 7.94298L2.53342 7.62019L2.1094 7.94298L2.53342 8.49995ZM3.87443 9.31752L3.56389 9.94486L3.56393 9.94489L3.87443 9.31752ZM19.583 7.94298C19.2452 8.20015 18.8369 8.45186 18.3554 8.69017L18.9765 9.94486C19.5258 9.67298 20.0122 9.37575 20.431 9.05692L19.583 7.94298ZM22.2404 10.9986C22.2404 9.84254 21.5422 8.78889 20.431 7.94298L19.583 9.05692C20.5027 9.75711 20.8404 10.4445 20.8404 10.9986H22.2404ZM18.9765 14.9422C20.9487 13.966 22.2404 12.5827 22.2404 10.9986H20.8404C20.8404 11.7617 20.1806 12.784 18.3554 13.6875L18.9765 14.9422ZM11.2705 16.5239C14.2697 16.5239 16.9946 15.9231 18.9765 14.9422L18.3555 13.6875C16.6051 14.5538 14.1016 15.1239 11.2705 15.1239V16.5239ZM3.56393 14.9422C5.5458 15.9231 8.27075 16.5239 11.2705 16.5239V15.1239C8.4388 15.1239 5.93534 14.5538 4.18492 13.6875L3.56393 14.9422ZM0.3 10.9986C0.3 12.5827 1.59173 13.966 3.56389 14.9422L4.18497 13.6875C2.3598 12.784 1.7 11.7617 1.7 10.9986H0.3ZM2.1094 7.94298C0.998236 8.78889 0.3 9.84254 0.3 10.9986H1.7C1.7 10.4445 2.03767 9.75711 2.95743 9.05692L2.1094 7.94298ZM4.18497 8.69017C3.70354 8.45186 3.29523 8.20015 2.95743 7.94298L2.1094 9.05692C2.52821 9.37575 3.01462 9.67298 3.56389 9.94486L4.18497 8.69017ZM11.2705 10.1266C8.4388 10.1266 5.93534 9.55646 4.18492 8.69015L3.56393 9.94489C5.5458 10.9257 8.27075 11.5266 11.2705 11.5266V10.1266ZM18.3555 8.69015C16.6051 9.55646 14.1016 10.1266 11.2705 10.1266V11.5266C14.2697 11.5266 16.9946 10.9257 18.9765 9.94489L18.3555 8.69015Z" fill="#A3A3A3"/>
</svg>
