<svg width="23" height="22" viewBox="0 0 23 22" fill="none" xmlns="http://www.w3.org/2000/svg">
<path d="M10.0078 1.58973C10.5135 0.47009 12.1036 0.47009 12.6099 1.58973L14.3529 5.44699C14.6993 6.21309 15.4239 6.73959 16.2595 6.8321L20.4663 7.29796C21.6877 7.43317 22.1788 8.94531 21.2702 9.77251L18.1408 12.6223C17.519 13.1882 17.2424 14.0402 17.4124 14.8634L18.2696 19.0086C18.5184 20.2118 17.2316 21.1464 16.1644 20.538L12.4868 18.442C11.7565 18.0257 10.8606 18.0257 10.1303 18.442L6.45332 20.538C5.38545 21.1464 4.09932 20.2118 4.34805 19.0086L5.20526 14.8634C5.37531 14.0402 5.09867 13.1882 4.47685 12.6223L1.34686 9.77251C0.438892 8.94531 0.929989 7.43317 2.1514 7.29796L6.35815 6.8321C7.19379 6.73959 7.91839 6.21302 8.26483 5.44699L10.0078 1.58973Z" stroke="#A3A3A3" stroke-width="1.4"/>
</svg>
