<svg width="28" height="28" viewBox="0 0 28 28" fill="none" xmlns="http://www.w3.org/2000/svg">
<path d="M18.1863 15.3334C18.4083 15.3334 18.6213 15.2531 18.7783 15.1102C18.9353 14.9673 19.0235 14.7735 19.0235 14.5715C19.0235 14.3694 18.9353 14.1756 18.7783 14.0327C18.6213 13.8898 18.4083 13.8096 18.1863 13.8096C17.9642 13.8096 17.7513 13.8898 17.5943 14.0327C17.4373 14.1756 17.349 14.3694 17.349 14.5715C17.349 14.7735 17.4373 14.9673 17.5943 15.1102C17.7513 15.2531 17.9642 15.3334 18.1863 15.3334ZM18.1863 18.381C18.4083 18.381 18.6213 18.3007 18.7783 18.1578C18.9353 18.015 19.0235 17.8212 19.0235 17.6191C19.0235 17.417 18.9353 17.2232 18.7783 17.0803C18.6213 16.9375 18.4083 16.8572 18.1863 16.8572C17.9642 16.8572 17.7513 16.9375 17.5943 17.0803C17.4373 17.2232 17.349 17.417 17.349 17.6191C17.349 17.8212 17.4373 18.015 17.5943 18.1578C17.7513 18.3007 17.9642 18.381 18.1863 18.381ZM14.8373 14.5715C14.8373 14.7735 14.7491 14.9673 14.5921 15.1102C14.4351 15.2531 14.2221 15.3334 14.0001 15.3334C13.778 15.3334 13.565 15.2531 13.408 15.1102C13.251 14.9673 13.1628 14.7735 13.1628 14.5715C13.1628 14.3694 13.251 14.1756 13.408 14.0327C13.565 13.8898 13.778 13.8096 14.0001 13.8096C14.2221 13.8096 14.4351 13.8898 14.5921 14.0327C14.7491 14.1756 14.8373 14.3694 14.8373 14.5715ZM14.8373 17.6191C14.8373 17.8212 14.7491 18.015 14.5921 18.1578C14.4351 18.3007 14.2221 18.381 14.0001 18.381C13.778 18.381 13.565 18.3007 13.408 18.1578C13.251 18.015 13.1628 17.8212 13.1628 17.6191C13.1628 17.417 13.251 17.2232 13.408 17.0803C13.565 16.9375 13.778 16.8572 14.0001 16.8572C14.2221 16.8572 14.4351 16.9375 14.5921 17.0803C14.7491 17.2232 14.8373 17.417 14.8373 17.6191ZM9.81381 15.3334C10.0359 15.3334 10.2488 15.2531 10.4058 15.1102C10.5628 14.9673 10.6511 14.7735 10.6511 14.5715C10.6511 14.3694 10.5628 14.1756 10.4058 14.0327C10.2488 13.8898 10.0359 13.8096 9.81381 13.8096C9.59176 13.8096 9.3788 13.8898 9.22179 14.0327C9.06477 14.1756 8.97656 14.3694 8.97656 14.5715C8.97656 14.7735 9.06477 14.9673 9.22179 15.1102C9.3788 15.2531 9.59176 15.3334 9.81381 15.3334ZM9.81381 18.381C10.0359 18.381 10.2488 18.3007 10.4058 18.1578C10.5628 18.015 10.6511 17.8212 10.6511 17.6191C10.6511 17.417 10.5628 17.2232 10.4058 17.0803C10.2488 16.9375 10.0359 16.8572 9.81381 16.8572C9.59176 16.8572 9.3788 16.9375 9.22179 17.0803C9.06477 17.2232 8.97656 17.417 8.97656 17.6191C8.97656 17.8212 9.06477 18.015 9.22179 18.1578C9.3788 18.3007 9.59176 18.381 9.81381 18.381Z" fill="#A3A3A3" stroke="#A3A3A3" stroke-width="0.2"/>
<path fill-rule="evenodd" clip-rule="evenodd" d="M9.81334 6C9.97988 6 10.1396 6.0602 10.2574 6.16737C10.3751 6.27453 10.4413 6.41988 10.4413 6.57143V7.15276C10.9955 7.14286 11.6059 7.14286 12.2774 7.14286H15.721C16.3933 7.14286 17.0036 7.14286 17.5579 7.15276V6.57143C17.5579 6.41988 17.624 6.27453 17.7418 6.16737C17.8596 6.0602 18.0193 6 18.1858 6C18.3524 6 18.5121 6.0602 18.6298 6.16737C18.7476 6.27453 18.8138 6.41988 18.8138 6.57143V7.20152C19.0314 7.21676 19.2377 7.23606 19.4325 7.25943C20.4137 7.37981 21.2083 7.63276 21.8354 8.20267C22.4616 8.77333 22.7396 9.49638 22.8719 10.3893C23 11.2579 23 12.3665 23 13.7669V15.376C23 16.7764 23 17.8857 22.8719 18.7535C22.7396 19.6465 22.4616 20.3695 21.8354 20.9402C21.2083 21.5101 20.4137 21.763 19.4325 21.8834C18.478 22 17.2598 22 15.721 22H12.279C10.7402 22 9.52114 22 8.56751 21.8834C7.58626 21.763 6.79171 21.5101 6.16461 20.9402C5.53835 20.3695 5.26038 19.6465 5.1281 18.7535C5 17.885 5 16.7764 5 15.376V13.7669C5 12.3665 5 11.2571 5.1281 10.3893C5.26038 9.49638 5.53835 8.77333 6.16461 8.20267C6.79171 7.63276 7.58626 7.37981 8.56751 7.25943C8.76287 7.23606 8.96911 7.21676 9.18624 7.20152V6.57143C9.18624 6.42001 9.25228 6.27478 9.36986 6.16764C9.48744 6.06049 9.64695 6.0002 9.81334 6ZM8.73329 8.39238C7.89186 8.49524 7.40625 8.68876 7.0521 9.01105C6.69794 9.33333 6.48528 9.77524 6.37225 10.541C6.35327 10.6705 6.33709 10.8074 6.32369 10.9516H21.6755C21.6621 10.8074 21.6459 10.6702 21.6269 10.5402C21.5139 9.77448 21.3012 9.33257 20.9471 9.01029C20.5929 8.688 20.1073 8.49448 19.265 8.39162C18.4052 8.28648 17.2707 8.28495 15.6741 8.28495H12.3251C10.7285 8.28495 9.59482 8.28724 8.73329 8.39238ZM6.25504 13.8095C6.25504 13.1589 6.25504 12.5928 6.26592 12.0952H21.7332C21.7441 12.5928 21.7441 13.1589 21.7441 13.8095V15.3333C21.7441 16.7863 21.7425 17.8187 21.6269 18.6019C21.5139 19.3676 21.3012 19.8095 20.9471 20.1318C20.5929 20.4541 20.1073 20.6476 19.265 20.7505C18.4052 20.8556 17.2707 20.8571 15.6741 20.8571H12.3251C10.7285 20.8571 9.59482 20.8556 8.73329 20.7505C7.89186 20.6476 7.40625 20.4541 7.0521 20.1318C6.69794 19.8095 6.48528 19.3676 6.37225 18.6011C6.25671 17.8187 6.25504 16.7863 6.25504 15.3333V13.8095Z" fill="#A3A3A3" stroke="#A3A3A3" stroke-width="0.2"/>
</svg>
