<svg width="4" height="17" viewBox="0 0 4 17" fill="none" xmlns="http://www.w3.org/2000/svg">
<path fill-rule="evenodd" clip-rule="evenodd" d="M0.936259 16.0091C0.935908 16.0095 0.935964 16.0101 0.936375 16.0103C1.0817 16.1084 1.24495 16.1768 1.41676 16.2117C1.58889 16.2466 1.76622 16.2472 1.93857 16.2133C2.11091 16.1795 2.27488 16.1119 2.42103 16.0146C2.56718 15.9172 2.69265 15.7918 2.79022 15.6458C2.88778 15.4998 2.95553 15.3359 2.98955 15.1636C3.02358 14.9913 3.02321 14.8139 2.98849 14.6418C2.95376 14.4696 2.88535 14.306 2.78718 14.1603C2.68902 14.0147 2.56305 13.8899 2.41649 13.7931C2.12273 13.6125 1.7704 13.5528 1.43352 13.6265C1.09665 13.7002 0.801441 13.9015 0.609917 14.1883C0.418394 14.4751 0.34546 14.8249 0.406436 15.1643C0.467357 15.5034 0.657211 15.8057 0.936163 16.0079C0.936557 16.0082 0.936603 16.0088 0.936259 16.0091ZM1.6767 9.56896C1.32318 9.56896 0.984141 9.42852 0.734164 9.17855C0.484186 8.92857 0.34375 8.58953 0.34375 8.23601C0.34375 7.88248 0.484186 7.54344 0.734164 7.29347C0.984141 7.04349 1.32318 6.90305 1.6767 6.90305C2.03023 6.90305 2.36927 7.04349 2.61925 7.29347C2.86922 7.54344 3.00966 7.88248 3.00966 8.23601C3.00966 8.58953 2.86922 8.92857 2.61925 9.17855C2.36927 9.42852 2.03023 9.56896 1.6767 9.56896ZM1.6767 2.90419C1.32318 2.90419 0.984141 2.76375 0.734164 2.51378C0.484186 2.2638 0.34375 1.92476 0.34375 1.57124C0.34375 1.21771 0.484186 0.878672 0.734164 0.628694C0.984141 0.378717 1.32318 0.238281 1.6767 0.238281C2.03023 0.238281 2.36927 0.378717 2.61925 0.628694C2.86922 0.878672 3.00966 1.21771 3.00966 1.57124C3.00966 1.92476 2.86922 2.2638 2.61925 2.51378C2.36927 2.76375 2.03023 2.90419 1.6767 2.90419Z" fill="black"/>
</svg>
