<svg width="24" height="26" viewBox="0 0 24 26" fill="none" xmlns="http://www.w3.org/2000/svg">
<path d="M22.7883 18.7352C22.1251 17.5938 21.1395 14.3746 21.1395 10.1875C21.1395 7.76326 20.1765 5.4383 18.4623 3.7241C16.7481 2.0099 14.4231 1.04688 11.9989 1.04688C9.57464 1.04688 7.24969 2.0099 5.53549 3.7241C3.82129 5.4383 2.85826 7.76326 2.85826 10.1875C2.85826 14.3758 1.87154 17.5938 1.20826 18.7352C1.06273 18.9844 0.985509 19.2675 0.984387 19.5561C0.983266 19.8447 1.05828 20.1285 1.20187 20.3788C1.34546 20.6291 1.55254 20.8372 1.8022 20.9819C2.05187 21.1266 2.3353 21.2029 2.62388 21.2031H7.60201C7.77279 22.2455 8.3085 23.1932 9.11349 23.877C9.91847 24.5608 10.9403 24.9362 11.9965 24.9362C13.0528 24.9362 14.0746 24.5608 14.8796 23.877C15.6846 23.1932 16.2203 22.2455 16.3911 21.2031H21.3739C21.6623 21.2025 21.9454 21.1259 22.1947 20.981C22.4441 20.8361 22.6508 20.628 22.7941 20.3778C22.9374 20.1275 23.0123 19.8439 23.011 19.5555C23.0098 19.2672 22.9326 18.9842 22.7872 18.7352H22.7883ZM11.9989 23.5469C11.3132 23.5467 10.6477 23.3152 10.1099 22.8899C9.57207 22.4646 9.19344 21.8703 9.03521 21.2031H14.9626C14.8043 21.8703 14.4257 22.4646 13.8879 22.8899C13.3501 23.3152 12.6845 23.5467 11.9989 23.5469ZM21.5743 19.6797C21.555 19.7156 21.5262 19.7455 21.4911 19.7662C21.4559 19.7868 21.4158 19.7974 21.3751 19.7969H2.62388C2.58313 19.7974 2.54301 19.7868 2.50788 19.7662C2.47275 19.7455 2.44397 19.7156 2.42467 19.6797C2.4041 19.6441 2.39327 19.6036 2.39327 19.5625C2.39327 19.5214 2.4041 19.4809 2.42467 19.4453C3.31178 17.9219 4.26451 14.3699 4.26451 10.1875C4.26451 8.13622 5.07938 6.16895 6.52986 4.71847C7.98033 3.26799 9.9476 2.45313 11.9989 2.45313C14.0502 2.45313 16.0174 3.26799 17.4679 4.71847C18.9184 6.16895 19.7333 8.13622 19.7333 10.1875C19.7333 14.3688 20.6872 17.916 21.5743 19.4453C21.5948 19.4809 21.6057 19.5214 21.6057 19.5625C21.6057 19.6036 21.5948 19.6441 21.5743 19.6797Z" fill="#0C0C0C" stroke="#0C0C0C" stroke-width="0.4"/>
</svg>
