<svg width="30" height="30" viewBox="0 0 30 30" fill="none" xmlns="http://www.w3.org/2000/svg">
<path d="M19.1487 19.1487C19.8639 18.4335 20.4313 17.5844 20.8184 16.6499C21.2055 15.7154 21.4047 14.7138 21.4047 13.7023C21.4047 12.6909 21.2055 11.6893 20.8184 10.7548C20.4313 9.82029 19.8639 8.97119 19.1487 8.25596C18.4335 7.54073 17.5844 6.97338 16.6499 6.58631C15.7154 6.19923 14.7138 6 13.7023 6C12.6909 6 11.6893 6.19923 10.7548 6.58631C9.82029 6.97338 8.97119 7.54073 8.25596 8.25596C6.81149 9.70043 6 11.6596 6 13.7023C6 15.7451 6.81149 17.7042 8.25596 19.1487C9.70043 20.5932 11.6596 21.4047 13.7023 21.4047C15.7451 21.4047 17.7042 20.5932 19.1487 19.1487ZM19.1487 19.1487L24 24" stroke="#BFBFBF" stroke-width="1.8" stroke-linecap="round" stroke-linejoin="round"/>
</svg>
