<svg width="257" height="68" viewBox="0 0 257 68" fill="none" xmlns="http://www.w3.org/2000/svg">
<path d="M231.152 1.3568C231.544 0.730129 232.456 0.730129 232.848 1.3568L237 8L227 8L231.152 1.3568Z" fill="#282828"/>
<rect y="8" width="257" height="60" rx="12" fill="#282828"/>
<path d="M19.0293 22.1035C21.7295 22.1035 23.3154 22.8555 23.3223 24.209C23.3154 25.4873 21.9277 26.2256 19.5352 26.3145V27.2441H24.5664V28.1191H13.4922V27.2441H18.4824V26.3145C16.1035 26.2119 14.7227 25.4805 14.7227 24.209C14.7227 22.8555 16.3154 22.1035 19.0293 22.1035ZM14.832 29.9785V29.1445H23.1445V31.8652H15.9258V33.123H23.5137V33.9707H14.8594V31.0723H22.0918V29.9785H14.832ZM15.8438 24.209C15.8301 25.043 17.0127 25.4941 19.0293 25.5078C21.0459 25.4941 22.2217 25.043 22.2285 24.209C22.2217 23.4092 21.0459 22.9375 19.0293 22.9238C17.0127 22.9375 15.8301 23.4092 15.8438 24.209ZM31.4621 24.0586V24.9336H25.3645V24.0586H27.8938V22.3223H28.9602V24.0586H31.4621ZM25.802 28.5156C25.802 26.9023 26.9025 25.7607 28.4133 25.7539C29.9445 25.7607 31.0383 26.9023 31.052 28.5156C31.0383 30.1494 29.9445 31.2979 28.4133 31.3047C26.9025 31.2979 25.802 30.1494 25.802 28.5156ZM26.759 28.5156C26.759 29.5957 27.4494 30.3682 28.4133 30.3613C29.384 30.3682 30.0949 29.5957 30.0949 28.5156C30.0949 27.4492 29.384 26.6699 28.4133 26.6562C27.4494 26.6699 26.759 27.4492 26.759 28.5156ZM32.091 33.5059V22.2539H33.1027V27.0801H34.716V21.9531H35.7414V34.1074H34.716V27.9688H33.1027V33.5059H32.091ZM48.2477 23.0742V23.8945H41.0699V23.0742H44.1187V21.8848H45.1852V23.0742H48.2477ZM40.6598 28.8438C41.692 28.8438 42.8814 28.8369 44.1187 28.7959V27.9482C42.6764 27.8184 41.7535 27.1689 41.7672 26.1777C41.7535 25.0498 42.9088 24.3594 44.6656 24.3594C46.3951 24.3594 47.5641 25.0498 47.5777 26.1777C47.5641 27.1689 46.6275 27.8252 45.1852 27.9482V28.7549C46.3199 28.7002 47.4684 28.6113 48.5348 28.4609L48.6168 29.2266C45.9508 29.6641 43.0113 29.7051 40.8238 29.7051L40.6598 28.8438ZM42.4234 31.5234V30.6621H50.6266V34.1074H49.5465V31.5234H42.4234ZM42.7789 26.1777C42.7789 26.7998 43.524 27.2168 44.6656 27.2031C45.7867 27.2168 46.5455 26.7998 46.5387 26.1777C46.5455 25.5146 45.7867 25.1113 44.6656 25.125C43.524 25.1113 42.7789 25.5146 42.7789 26.1777ZM49.5465 30.0879V21.9941H50.6266V30.0879H49.5465ZM63.5926 27.873V28.7617H52.5047V27.873H63.5926ZM53.7352 31.0996V30.2246H62.2254V34.1758H61.159V31.0996H53.7352ZM53.9129 26.5195V22.4316H62.2117V23.3066H54.9793V25.6445H62.3211V26.5195H53.9129ZM73.9062 21.9668V25.9727H75.7383V26.875H73.9062V31.0723H72.8398V21.9668H73.9062ZM64.4316 24.332V23.457H67.5215V21.9668H68.5879V23.457H71.6777V24.332H64.4316ZM65.1289 27.2715C65.1221 25.8906 66.2979 25.002 68.0547 25.002C69.791 25.002 70.9668 25.8906 70.9805 27.2715C70.9668 28.6387 69.791 29.5205 68.0547 29.5137C66.2979 29.5205 65.1221 28.6387 65.1289 27.2715ZM66.1543 27.2715C66.1475 28.126 66.9062 28.6797 68.0547 28.666C69.1895 28.6797 69.9551 28.126 69.9688 27.2715C69.9551 26.4033 69.1895 25.8428 68.0547 25.8496C66.9062 25.8428 66.1475 26.4033 66.1543 27.2715ZM66.3047 33.8477V30.3477H67.3574V32.9453H74.4668V33.8477H66.3047ZM89.6937 21.9668V29.2676H88.6137V27.627H85.3871V26.7383H88.6137V25.0977H85.5102C84.7104 27.0527 82.8373 28.4678 80.2328 29.2402L79.7816 28.3926C82.7143 27.5244 84.5531 25.877 84.765 23.7715H80.3969V22.8691H85.934C85.934 23.3477 85.8793 23.8057 85.7768 24.2363H88.6137V21.9668H89.6937ZM81.6547 31.7148C81.6479 30.2656 83.227 29.3906 85.7152 29.3906C88.1762 29.3906 89.7621 30.2656 89.7621 31.7148C89.7621 33.1709 88.1762 34.0527 85.7152 34.0527C83.227 34.0527 81.6479 33.1709 81.6547 31.7148ZM82.7074 31.7148C82.7143 32.6309 83.8832 33.1846 85.7152 33.1777C87.5199 33.1846 88.6889 32.6309 88.6957 31.7148C88.6889 30.7988 87.5199 30.2451 85.7152 30.252C83.8832 30.2451 82.7143 30.7988 82.7074 31.7148ZM101.593 21.9531V29.3223H100.513V26.5469H98.4488V25.6582H100.513V21.9531H101.593ZM91.5309 24.1133V23.2383H94.5523V21.8438H95.6051V23.2383H98.6266V24.1133H91.5309ZM92.2555 26.9023C92.2555 25.6309 93.4244 24.7422 95.0719 24.7422C96.7262 24.7422 97.8883 25.6309 97.902 26.9023C97.8883 28.2148 96.7262 29.0762 95.0719 29.0762C93.4244 29.0762 92.2555 28.2148 92.2555 26.9023ZM93.2809 26.9023C93.2809 27.709 94.0123 28.2422 95.0719 28.2559C96.1314 28.2422 96.8629 27.709 96.8629 26.9023C96.8629 26.123 96.1314 25.5762 95.0719 25.5762C94.0123 25.5762 93.2809 26.123 93.2809 26.9023ZM93.65 33.9434V29.9785H101.593V33.9434H93.65ZM94.7164 33.0684H100.541V30.8398H94.7164V33.0684ZM113.438 21.9531V34.1074H112.358V21.9531H113.438ZM103.663 30.9219C105.468 30.1016 106.848 28.0508 106.848 25.918V24.9473H103.991V24.0723H106.835V22.1855H107.901V24.0723H110.731V24.9473H107.901V25.918C107.901 27.9551 109.323 29.9238 111.155 30.7031L110.554 31.5371C109.145 30.915 107.963 29.6025 107.395 27.9961C106.848 29.6914 105.673 31.0928 104.264 31.7559L103.663 30.9219ZM122.609 22.6367L119.409 34.4902H118.343L121.529 22.6367H122.609ZM131.957 22.1035C134.657 22.1035 136.243 22.8555 136.25 24.209C136.243 25.4873 134.855 26.2256 132.463 26.3145V27.2441H137.494V28.1191H126.42V27.2441H131.41V26.3145C129.031 26.2119 127.65 25.4805 127.65 24.209C127.65 22.8555 129.243 22.1035 131.957 22.1035ZM127.759 29.9785V29.1445H136.072V31.8652H128.853V33.123H136.441V33.9707H127.787V31.0723H135.019V29.9785H127.759ZM128.771 24.209C128.757 25.043 129.94 25.4941 131.957 25.5078C133.973 25.4941 135.149 25.043 135.156 24.209C135.149 23.4092 133.973 22.9375 131.957 22.9238C129.94 22.9375 128.757 23.4092 128.771 24.209ZM144.389 24.0586V24.9336H138.292V24.0586H140.821V22.3223H141.887V24.0586H144.389ZM138.729 28.5156C138.729 26.9023 139.83 25.7607 141.341 25.7539C142.872 25.7607 143.966 26.9023 143.979 28.5156C143.966 30.1494 142.872 31.2979 141.341 31.3047C139.83 31.2979 138.729 30.1494 138.729 28.5156ZM139.686 28.5156C139.686 29.5957 140.377 30.3682 141.341 30.3613C142.311 30.3682 143.022 29.5957 143.022 28.5156C143.022 27.4492 142.311 26.6699 141.341 26.6562C140.377 26.6699 139.686 27.4492 139.686 28.5156ZM145.018 33.5059V22.2539H146.03V27.0801H147.643V21.9531H148.669V34.1074H147.643V27.9688H146.03V33.5059H145.018ZM161.175 23.0742V23.8945H153.997V23.0742H157.046V21.8848H158.113V23.0742H161.175ZM153.587 28.8438C154.619 28.8438 155.809 28.8369 157.046 28.7959V27.9482C155.604 27.8184 154.681 27.1689 154.695 26.1777C154.681 25.0498 155.836 24.3594 157.593 24.3594C159.322 24.3594 160.491 25.0498 160.505 26.1777C160.491 27.1689 159.555 27.8252 158.113 27.9482V28.7549C159.247 28.7002 160.396 28.6113 161.462 28.4609L161.544 29.2266C158.878 29.6641 155.939 29.7051 153.751 29.7051L153.587 28.8438ZM155.351 31.5234V30.6621H163.554V34.1074H162.474V31.5234H155.351ZM155.706 26.1777C155.706 26.7998 156.451 27.2168 157.593 27.2031C158.714 27.2168 159.473 26.7998 159.466 26.1777C159.473 25.5146 158.714 25.1113 157.593 25.125C156.451 25.1113 155.706 25.5146 155.706 26.1777ZM162.474 30.0879V21.9941H163.554V30.0879H162.474ZM176.52 27.873V28.7617H165.432V27.873H176.52ZM166.663 31.0996V30.2246H175.153V34.1758H174.086V31.0996H166.663ZM166.84 26.5195V22.4316H175.139V23.3066H167.907V25.6445H175.248V26.5195H166.84ZM190.052 21.9531V26.9023H192.02V27.8047H190.052V34.1074H188.985V21.9531H190.052ZM180.727 30.9492C183.865 29.3906 185.574 27.0459 185.82 24.168H181.288V23.2656H186.907C186.9 26.7041 185.287 29.8418 181.329 31.7969L180.727 30.9492ZM202.361 25.3574V26.2461H194.062V22.1992H195.129V25.3574H202.361ZM192.545 28.5566V27.668H203.633V28.5566H192.545ZM193.885 31.8516C193.878 30.4365 195.457 29.6436 198.082 29.6504C200.687 29.6436 202.252 30.4365 202.266 31.8516C202.252 33.2598 200.687 34.0527 198.082 34.0527C195.457 34.0527 193.878 33.2598 193.885 31.8516ZM194.979 31.8516C194.965 32.6992 196.134 33.2119 198.082 33.2188C200.01 33.2119 201.179 32.6992 201.186 31.8516C201.179 30.9902 200.01 30.5049 198.082 30.498C196.134 30.5049 194.965 30.9902 194.979 31.8516ZM213.946 21.9668V25.9727H215.779V26.875H213.946V31.0723H212.88V21.9668H213.946ZM204.472 24.332V23.457H207.562V21.9668H208.628V23.457H211.718V24.332H204.472ZM205.169 27.2715C205.162 25.8906 206.338 25.002 208.095 25.002C209.831 25.002 211.007 25.8906 211.021 27.2715C211.007 28.6387 209.831 29.5205 208.095 29.5137C206.338 29.5205 205.162 28.6387 205.169 27.2715ZM206.195 27.2715C206.188 28.126 206.946 28.6797 208.095 28.666C209.23 28.6797 209.995 28.126 210.009 27.2715C209.995 26.4033 209.23 25.8428 208.095 25.8496C206.946 25.8428 206.188 26.4033 206.195 27.2715ZM206.345 33.8477V30.3477H207.398V32.9453H214.507V33.8477H206.345ZM23.5684 41.9668V49.2676H22.4883V47.627H19.2617V46.7383H22.4883V45.0977H19.3848C18.585 47.0527 16.7119 48.4678 14.1074 49.2402L13.6562 48.3926C16.5889 47.5244 18.4277 45.877 18.6396 43.7715H14.2715V42.8691H19.8086C19.8086 43.3477 19.7539 43.8057 19.6514 44.2363H22.4883V41.9668H23.5684ZM15.5293 51.7148C15.5225 50.2656 17.1016 49.3906 19.5898 49.3906C22.0508 49.3906 23.6367 50.2656 23.6367 51.7148C23.6367 53.1709 22.0508 54.0527 19.5898 54.0527C17.1016 54.0527 15.5225 53.1709 15.5293 51.7148ZM16.582 51.7148C16.5889 52.6309 17.7578 53.1846 19.5898 53.1777C21.3945 53.1846 22.5635 52.6309 22.5703 51.7148C22.5635 50.7988 21.3945 50.2451 19.5898 50.252C17.7578 50.2451 16.5889 50.7988 16.582 51.7148ZM35.468 41.9531V49.3223H34.3879V46.5469H32.3234V45.6582H34.3879V41.9531H35.468ZM25.4055 44.1133V43.2383H28.427V41.8438H29.4797V43.2383H32.5012V44.1133H25.4055ZM26.1301 46.9023C26.1301 45.6309 27.299 44.7422 28.9465 44.7422C30.6008 44.7422 31.7629 45.6309 31.7766 46.9023C31.7629 48.2148 30.6008 49.0762 28.9465 49.0762C27.299 49.0762 26.1301 48.2148 26.1301 46.9023ZM27.1555 46.9023C27.1555 47.709 27.8869 48.2422 28.9465 48.2559C30.0061 48.2422 30.7375 47.709 30.7375 46.9023C30.7375 46.123 30.0061 45.5762 28.9465 45.5762C27.8869 45.5762 27.1555 46.123 27.1555 46.9023ZM27.5246 53.9434V49.9785H35.468V53.9434H27.5246ZM28.591 53.0684H34.4152V50.8398H28.591V53.0684ZM47.3129 41.9531V54.1074H46.2328V41.9531H47.3129ZM37.5375 50.9219C39.3422 50.1016 40.723 48.0508 40.723 45.918V44.9473H37.8656V44.0723H40.7094V42.1855H41.7758V44.0723H44.6059V44.9473H41.7758V45.918C41.7758 47.9551 43.1977 49.9238 45.0297 50.7031L44.4281 51.5371C43.0199 50.915 41.8373 49.6025 41.2699 47.9961C40.723 49.6914 39.5473 51.0928 38.1391 51.7559L37.5375 50.9219ZM53.1695 42.8418C55.0768 42.8486 56.4303 44.0107 56.4371 45.6992C56.4303 47.3945 55.0768 48.5498 53.1695 48.5566C51.2486 48.5498 49.8814 47.3945 49.8883 45.6992C49.8814 44.0107 51.2486 42.8486 53.1695 42.8418ZM49.2594 50.5391C51.5016 50.5459 54.5982 50.5254 57.2848 50.1289L57.3668 50.9219C54.5846 51.4414 51.5973 51.4551 49.4098 51.4551L49.2594 50.5391ZM50.941 45.6992C50.9342 46.834 51.8707 47.6133 53.1695 47.6133C54.4547 47.6133 55.3912 46.834 55.3844 45.6992C55.3912 44.5713 54.4547 43.7852 53.1695 43.7852C51.8707 43.7852 50.9342 44.5713 50.941 45.6992ZM58.0914 54.1348V41.9531H59.1578V54.1348H58.0914ZM75.4785 47.6406V48.5293H70.4609V49.8281C72.751 49.9307 74.1113 50.6758 74.125 51.9609C74.1113 53.3213 72.5459 54.0801 69.9414 54.0801C67.3027 54.0801 65.7373 53.3213 65.7441 51.9609C65.7373 50.6758 67.0908 49.9307 69.4082 49.8281V48.5293H64.4043V47.6406H75.4785ZM65.0332 46.0547C67.1387 45.8359 69.1689 44.7627 69.2441 43.4023H65.416V42.5273H74.4941V43.4023H70.6387C70.7139 44.7627 72.7236 45.8359 74.8633 46.0547L74.4668 46.9023C72.4775 46.6631 70.6113 45.7676 69.9414 44.4209C69.2715 45.7676 67.4189 46.6631 65.416 46.9023L65.0332 46.0547ZM66.8379 51.9609C66.8242 52.7676 67.9932 53.2529 69.9414 53.2461C71.8691 53.2529 73.0381 52.7676 73.0449 51.9609C73.0381 51.1338 71.8691 50.6621 69.9414 50.6484C67.9932 50.6621 66.8242 51.1338 66.8379 51.9609ZM80.3098 42.5547C82.1281 42.541 83.4338 43.5459 83.427 45.0293C83.4338 46.5127 82.1281 47.5244 80.3098 47.5176C78.4914 47.5244 77.1926 46.5127 77.1926 45.0293C77.1926 43.5459 78.4914 42.541 80.3098 42.5547ZM76.2766 48.5566C78.5598 48.5635 81.6838 48.5156 84.384 48.1191L84.4523 48.9258C83.2902 49.1377 82.0871 49.2676 80.9113 49.3428V53.7383H79.8449V49.4043C78.6076 49.459 77.4387 49.4658 76.427 49.4727L76.2766 48.5566ZM78.2453 45.0293C78.2316 45.9795 79.0998 46.6357 80.3098 46.6289C81.5334 46.6357 82.4084 45.9795 82.4016 45.0293C82.4084 44.0859 81.5334 43.416 80.3098 43.4297C79.0998 43.416 78.2316 44.0859 78.2453 45.0293ZM85.2727 54.1211V41.9668H86.3254V54.1211H85.2727ZM95.0258 42.8828V43.7715H93.7816V47.6611C94.3422 47.6201 94.8959 47.5723 95.4223 47.5039L95.477 48.3242C93.1049 48.6865 90.3432 48.7275 88.3676 48.7207L88.2309 47.8184C88.7162 47.8184 89.2426 47.8184 89.8031 47.8115V43.7715H88.5727V42.8828H95.0258ZM90.1723 51.8926C90.1654 50.5049 91.7035 49.7119 94.2465 49.7188C96.7895 49.7119 98.3207 50.5049 98.3207 51.8926C98.3207 53.2803 96.7895 54.0801 94.2465 54.0801C91.7035 54.0801 90.1654 53.2803 90.1723 51.8926ZM90.8422 47.791C91.4643 47.7773 92.1068 47.7568 92.7426 47.7227V43.7715H90.8422V47.791ZM91.2387 51.8926C91.2318 52.7402 92.3734 53.2324 94.2465 53.2324C96.1127 53.2324 97.2543 52.7402 97.2543 51.8926C97.2543 51.0586 96.1127 50.5527 94.2465 50.5527C92.3734 50.5527 91.2318 51.0586 91.2387 51.8926ZM95.1488 47.2031V46.3145H97.1996V45.0293H95.1488V44.1406H97.1996V41.9531H98.2797V49.459H97.1996V47.2031H95.1488ZM109.769 42.623V43.5391C109.769 44.5166 109.769 45.6582 109.482 47.1758H111.232V48.0645H108.115V51.0039H107.076V48.0645H104.847V51.0039H103.795V48.0645H100.103V47.1758H108.416C108.71 45.6377 108.71 44.5166 108.703 43.5391V43.498H101.511V42.623H109.769ZM101.47 53.8477V50.0469H102.537V52.9453H110.097V53.8477H101.47ZM116.068 49.2266C116.082 46.6494 116.779 44.5029 118.037 42.6777H119.076C118.153 44.0244 117.292 46.793 117.285 49.2266C117.292 51.667 118.153 54.4287 119.076 55.7891H118.037C116.779 53.957 116.082 51.8105 116.068 49.2266ZM123.62 42.9648C125.322 42.9854 127.216 44.0107 127.216 47.6543C127.216 51.1748 125.774 53.1367 123.456 53.1367C121.713 53.1367 120.489 52.0703 120.243 50.498H121.46C121.679 51.3867 122.356 52.043 123.456 52.043C125.07 52.043 126.054 50.6484 126.068 48.2422H125.931C125.363 49.0625 124.454 49.5547 123.402 49.5547C121.631 49.5547 120.161 48.1943 120.161 46.2871C120.161 44.4414 121.515 42.9443 123.62 42.9648ZM121.364 46.2734C121.358 47.4971 122.287 48.4746 123.579 48.4746C124.871 48.4746 125.876 47.4082 125.876 46.2461C125.876 45.1113 124.926 44.0449 123.62 44.0449C122.328 44.0449 121.351 45.0498 121.364 46.2734ZM129.914 52.084L128.848 55.8027H127.836L128.588 52.084H129.914ZM134.65 53.1367C132.456 53.1367 131.184 51.291 131.191 48.0508C131.184 44.8379 132.469 42.9648 134.65 42.9648C136.824 42.9648 138.109 44.8379 138.109 48.0508C138.109 51.291 136.844 53.1367 134.65 53.1367ZM132.38 48.0508C132.387 50.6143 133.214 52.043 134.65 52.043C136.079 52.043 136.913 50.6143 136.906 48.0508C136.913 45.4873 136.072 44.0381 134.65 44.0312C133.228 44.0381 132.387 45.4873 132.38 48.0508ZM142.79 53.1367C140.596 53.1367 139.324 51.291 139.331 48.0508C139.324 44.8379 140.609 42.9648 142.79 42.9648C144.964 42.9648 146.249 44.8379 146.249 48.0508C146.249 51.291 144.984 53.1367 142.79 53.1367ZM140.52 48.0508C140.527 50.6143 141.354 52.043 142.79 52.043C144.219 52.043 145.053 50.6143 145.046 48.0508C145.053 45.4873 144.212 44.0381 142.79 44.0312C141.368 44.0381 140.527 45.4873 140.52 48.0508ZM150.93 53.1367C148.735 53.1367 147.464 51.291 147.471 48.0508C147.464 44.8379 148.749 42.9648 150.93 42.9648C153.104 42.9648 154.389 44.8379 154.389 48.0508C154.389 51.291 153.124 53.1367 150.93 53.1367ZM148.66 48.0508C148.667 50.6143 149.494 52.043 150.93 52.043C152.358 52.043 153.192 50.6143 153.186 48.0508C153.192 45.4873 152.352 44.0381 150.93 44.0312C149.508 44.0381 148.667 45.4873 148.66 48.0508ZM158.427 49.2266C158.413 51.8105 157.716 53.957 156.458 55.7891H155.419C156.342 54.4287 157.203 51.667 157.21 49.2266C157.203 46.793 156.342 44.0244 155.419 42.6777H156.458C157.716 44.5029 158.413 46.6494 158.427 49.2266Z" fill="white"/>
</svg>
