<svg width="99" height="31" viewBox="0 0 99 31" fill="none" xmlns="http://www.w3.org/2000/svg">
<rect y="0.330078" width="99" height="23" rx="11.5" fill="black"/>
<path d="M14.7168 7.08789C14.7031 8.49609 15.8447 9.82227 17.7246 10.3555L17.1094 11.3672C15.6943 10.9639 14.6416 10.0889 14.0879 8.97461C13.5479 10.2393 12.4473 11.2168 10.9434 11.668L10.3145 10.6562C12.2354 10.0752 13.3975 8.64648 13.4043 7.10156V6.9375H10.7246V5.89844H17.3555V6.9375H14.7168V7.08789ZM12.1602 13.0898V12.0781H20.0762V15.127H13.459V16.3574H20.5V17.3691H12.1875V14.1836H18.791V13.0898H12.1602ZM18.7773 11.5449V5.24219H20.0762V7.82617H21.8535V8.89258H20.0762V11.5449H18.7773ZM31.8938 5.24219V10.2051H33.8625V11.2852H31.8938V17.4922H30.6086V5.24219H31.8938ZM22.2824 8.22266V7.15625H25.3039V5.40625H26.6027V7.15625H29.5422V8.22266H22.2824ZM22.9113 11.9688C22.9113 10.3008 24.1965 9.125 25.9602 9.125C27.717 9.125 29.0021 10.3008 29.009 11.9688C29.0021 13.6504 27.717 14.8193 25.9602 14.8262C24.1965 14.8193 22.9113 13.6504 22.9113 11.9688ZM24.1555 11.9688C24.1486 13.0352 24.9143 13.7461 25.9602 13.7324C26.9992 13.7461 27.758 13.0352 27.7648 11.9688C27.758 10.9229 26.9992 10.1982 25.9602 10.1914C24.9143 10.1982 24.1486 10.9229 24.1555 11.9688ZM44.1625 6.41797V7.62109C44.1557 9.13184 44.1557 10.8271 43.6977 13.3359L42.3852 13.1992C42.8568 10.8271 42.8568 9.09082 42.8637 7.62109V7.4707H35.4262V6.41797H44.1625ZM34.2504 15.8379V14.7578H38.5023V10.4375H39.7875V14.7578H45.4203V15.8379H34.2504ZM53.6199 13.3359C53.6199 14.3887 54.1395 15.5029 55.2537 16.166C56.3748 15.4482 56.9285 14.2793 56.9285 13.3359V12.748H58.2V13.3359C58.1932 14.6074 59.034 15.8379 60.6336 16.3574L59.991 17.3145C58.7811 16.8975 57.9539 16.0771 57.5301 15.0791C57.1404 16.0635 56.409 16.959 55.2879 17.4238C54.1121 16.9795 53.367 16.1113 52.991 15.1133C52.5467 16.0771 51.74 16.8906 50.5848 17.3145L49.9285 16.3574C51.5008 15.7969 52.3553 14.5186 52.3621 13.3359V12.748H53.6199V13.3359ZM49.6141 8.82422C49.6209 7.1084 51.0018 5.93262 52.8816 5.92578C54.7547 5.93262 56.1355 7.1084 56.1355 8.82422C56.1355 10.5195 54.7547 11.6953 52.8816 11.6953C51.0018 11.6953 49.6209 10.5195 49.6141 8.82422ZM50.8855 8.82422C50.8787 9.89062 51.7195 10.6152 52.8816 10.6152C54.0301 10.6152 54.8641 9.89062 54.8641 8.82422C54.8641 7.75098 54.0301 7.02637 52.8816 7.0332C51.7195 7.02637 50.8787 7.75098 50.8855 8.82422ZM58.2273 12.2285V5.25586H59.5262V12.2285H58.2273ZM64.5898 6.1582C66.2578 6.16504 67.4678 7.57324 67.666 9.83594H70.1953V5.24219H71.4805V17.5195H70.1953V10.8887H67.6797C67.5361 13.2812 66.2988 14.7646 64.5898 14.7578C62.7646 14.7646 61.4727 13.0967 61.4863 10.4512C61.4727 7.83301 62.7646 6.16504 64.5898 6.1582ZM62.7168 10.4512C62.7236 12.3994 63.4824 13.5957 64.5898 13.5957C65.6973 13.5957 66.4561 12.3994 66.4629 10.4512C66.4561 8.53027 65.6973 7.32715 64.5898 7.32031C63.4824 7.32715 62.7236 8.53027 62.7168 10.4512ZM84.3781 14.8809V15.9609H73.1672V14.8809H75.8469V11.6816C74.842 11.1279 74.2268 10.2529 74.2336 9.15234C74.2268 7.22461 76.1203 5.95996 78.7453 5.95312C81.3771 5.95996 83.2707 7.22461 83.2707 9.15234C83.2707 10.2324 82.6828 11.1006 81.6984 11.6543V14.8809H84.3781ZM75.4914 9.15234C75.4914 10.4648 76.8244 11.3193 78.7453 11.3262C80.6525 11.3193 82.0061 10.4648 82.0129 9.15234C82.0061 7.83301 80.6525 6.99219 78.7453 6.99219C76.8244 6.99219 75.4914 7.83301 75.4914 9.15234ZM77.132 14.8809H80.3859V12.1602C79.8869 12.2764 79.3332 12.3379 78.7453 12.3379C78.1711 12.3379 77.6242 12.2764 77.132 12.1602V14.8809ZM87.3227 6.43164L87.1996 13.4727H85.8461L85.723 6.43164H87.3227ZM85.559 15.4551C85.5521 14.9219 85.9965 14.4844 86.5297 14.4844C87.0561 14.4844 87.4936 14.9219 87.5004 15.4551C87.4936 15.9883 87.0561 16.4189 86.5297 16.4258C85.9965 16.4189 85.5521 15.9883 85.559 15.4551Z" fill="white"/>
<path d="M52.848 28.9733C52.4563 29.5999 51.5437 29.5999 51.152 28.9733L47 22.3301L57 22.3301L52.848 28.9733Z" fill="black"/>
</svg>
