<svg width="257" height="68" viewBox="0 0 257 68" fill="none" xmlns="http://www.w3.org/2000/svg">
<path d="M231.152 1.3568C231.544 0.730129 232.456 0.730129 232.848 1.3568L237 8L227 8L231.152 1.3568Z" fill="#282828"/>
<rect y="8" width="257" height="60" rx="12" fill="#282828"/>
<path d="M17.6074 24.209C17.6143 25.8291 18.8037 27.3057 20.6016 27.9277L20.0547 28.7617C18.667 28.2695 17.6074 27.2783 17.0879 26.0205C16.5684 27.4014 15.4541 28.4746 14.0254 28.9941L13.4512 28.1602C15.2695 27.5176 16.541 25.9521 16.5547 24.209V23.6895H13.7793V22.8145H20.3418V23.6895H17.6074V24.209ZM15.0371 30.7988V29.9238H22.9941V34.1074H21.9277V30.7988H15.0371ZM21.9277 29.2812V21.9531H22.9941V25.166H24.8262V26.082H22.9941V29.2812H21.9277ZM35.468 21.9668V30.9629H34.3879V26.752H30.8879V25.8906H34.3879V24.4277H30.8879V23.5664H34.3879V21.9668H35.468ZM26.1164 29.1582V22.8418H27.1965V28.2422C28.8713 28.2354 30.4846 28.1396 32.3371 27.8047L32.4465 28.6934C30.4709 29.0625 28.8166 29.1445 27.0324 29.1582H26.1164ZM27.634 33.8477V30.1973H28.7141V32.9453H35.7961V33.8477H27.634ZM46.9164 21.9531V26.9707H48.7621V27.873H46.9164V34.1074H45.8363V21.9531H46.9164ZM37.2504 30.7441C39.0824 28.8643 39.8275 26.6016 39.9643 24.1816H37.6332V23.2793H40.9828C40.9691 26.1709 40.3197 29.0283 38.1117 31.3594L37.2504 30.7441ZM40.7367 31.5645C42.6371 29.418 43.2045 26.7178 43.307 24.1816H41.3656V23.2793H44.3188C44.3119 26.1641 43.8881 29.5205 41.6117 32.166L40.7367 31.5645ZM53.5387 25.6855C53.5455 27.75 55.0426 29.8486 56.8336 30.6211L56.232 31.4688C54.8102 30.8262 53.5865 29.4248 53.0191 27.7432C52.4518 29.5273 51.2213 31.0723 49.8336 31.7695L49.191 30.9219C50.9342 30.0879 52.4518 27.791 52.4586 25.6855V24.0996H49.5875V23.2109H56.4371V24.0996H53.5387V25.6855ZM58.1324 34.1074V21.9531H59.2125V34.1074H58.1324ZM74.2207 26.0547V26.9434H65.8398V22.582H66.9062V26.0547H74.2207ZM64.4043 29.6777V28.7754H75.5332V29.6777H70.4473V34.1074H69.3809V29.6777H64.4043ZM80.5285 24.1953C80.5285 25.7744 81.7453 27.2852 83.5227 27.9004L82.9621 28.748C81.5949 28.2559 80.5354 27.2373 80.0158 25.9863C79.4895 27.3809 78.3615 28.502 76.9191 29.0352L76.3586 28.1875C78.1496 27.5449 79.4484 25.9248 79.4484 24.209V23.6758H76.7004V22.8008H83.2492V23.6758H80.5285V24.1953ZM78.2043 30.7715V29.8828H86.3801V34.1074H85.3V30.7715H78.2043ZM82.8664 26.041V25.1387H85.3V21.9531H86.3801V29.2402H85.3V26.041H82.8664ZM95.2719 25.9453V26.8203H92.8109V28.5156C93.9457 28.4678 95.0805 28.3857 96.1332 28.2695L96.2152 29.0625C93.5971 29.4248 90.7055 29.5 88.4223 29.5L88.2582 28.625C89.3246 28.6182 90.5209 28.6045 91.7445 28.5635V26.8203H89.3656V22.7461H95.1762V23.6348H90.4457V25.9453H95.2719ZM90.3363 33.8477V30.4297H91.4027V32.9453H98.6215V33.8477H90.3363ZM97.1449 31.0586V21.9668H98.225V31.0586H97.1449ZM113.493 21.9668V29.2676H112.413V27.627H109.186V26.7383H112.413V25.0977H109.309C108.51 27.0527 106.637 28.4678 104.032 29.2402L103.581 28.3926C106.513 27.5244 108.352 25.877 108.564 23.7715H104.196V22.8691H109.733C109.733 23.3477 109.679 23.8057 109.576 24.2363H112.413V21.9668H113.493ZM105.454 31.7148C105.447 30.2656 107.026 29.3906 109.514 29.3906C111.975 29.3906 113.561 30.2656 113.561 31.7148C113.561 33.1709 111.975 34.0527 109.514 34.0527C107.026 34.0527 105.447 33.1709 105.454 31.7148ZM106.507 31.7148C106.513 32.6309 107.682 33.1846 109.514 33.1777C111.319 33.1846 112.488 32.6309 112.495 31.7148C112.488 30.7988 111.319 30.2451 109.514 30.252C107.682 30.2451 106.513 30.7988 106.507 31.7148ZM125.393 21.9531V29.3223H124.312V26.5469H122.248V25.6582H124.312V21.9531H125.393ZM115.33 24.1133V23.2383H118.352V21.8438H119.404V23.2383H122.426V24.1133H115.33ZM116.055 26.9023C116.055 25.6309 117.224 24.7422 118.871 24.7422C120.525 24.7422 121.688 25.6309 121.701 26.9023C121.688 28.2148 120.525 29.0762 118.871 29.0762C117.224 29.0762 116.055 28.2148 116.055 26.9023ZM117.08 26.9023C117.08 27.709 117.812 28.2422 118.871 28.2559C119.931 28.2422 120.662 27.709 120.662 26.9023C120.662 26.123 119.931 25.5762 118.871 25.5762C117.812 25.5762 117.08 26.123 117.08 26.9023ZM117.449 33.9434V29.9785H125.393V33.9434H117.449ZM118.516 33.0684H124.34V30.8398H118.516V33.0684ZM137.238 21.9531V34.1074H136.157V21.9531H137.238ZM127.462 30.9219C129.267 30.1016 130.648 28.0508 130.648 25.918V24.9473H127.79V24.0723H130.634V22.1855H131.7V24.0723H134.53V24.9473H131.7V25.918C131.7 27.9551 133.122 29.9238 134.954 30.7031L134.353 31.5371C132.945 30.915 131.762 29.6025 131.195 27.9961C130.648 29.6914 129.472 31.0928 128.064 31.7559L127.462 30.9219ZM146.408 22.6367L143.209 34.4902H142.142L145.328 22.6367H146.408ZM159.625 21.9531V26.7656H161.662V27.668H159.625V34.1348H158.559V21.9531H159.625ZM150.752 31.0859V23.1426H156.426V24.0312H151.818V30.1836C154.02 30.1768 155.571 30.0811 157.383 29.7461L157.52 30.6758C155.612 31.0176 154.02 31.0859 151.709 31.0859H150.752ZM167.655 22.2266C170.301 22.2266 171.942 23.0811 171.948 24.5371C171.942 25.9727 170.301 26.8135 167.655 26.8066C165.01 26.8135 163.349 25.9727 163.349 24.5371C163.349 23.0811 165.01 22.2266 167.655 22.2266ZM162.118 28.748V27.8594H173.193V28.748H162.118ZM163.472 33.9434V29.9512H171.839V33.9434H163.472ZM164.456 24.5371C164.449 25.4189 165.687 25.9521 167.655 25.959C169.604 25.9521 170.848 25.4189 170.855 24.5371C170.848 23.6279 169.604 23.0879 167.655 23.0879C165.687 23.0879 164.449 23.6279 164.456 24.5371ZM164.538 33.0684H170.786V30.8125H164.538V33.0684ZM182.076 23.3066V27.5039H178.781V30.2109C180.182 30.1973 181.508 30.1562 183.129 29.8691L183.211 30.7578C181.481 31.0654 180.087 31.1064 178.548 31.1133H177.742V26.6152H181.05V24.1953H177.714V23.3066H182.076ZM182.664 27.2168V26.3418H184.222V22.2539H185.234V33.4648H184.222V27.2168H182.664ZM186.697 34.1074V21.9531H187.722V34.1074H186.697ZM199.554 21.9668V28.3652H198.528V21.9668H199.554ZM189.792 27.7773V22.6777H190.804V24.291H193.511V22.6777H194.522V24.7148H196.136V22.2129H197.147V28.2969H196.136V25.6172H194.522V27.7773H189.792ZM190.804 26.9297H193.511V25.125H190.804V26.9297ZM191.487 29.8008V28.9531H199.554V31.7969H192.581V33.1094H200.046V33.9707H191.514V30.9766H198.501V29.8008H191.487ZM210.405 22.6641V23.5391H206.058V26.7383C208.444 26.752 209.879 26.6631 211.54 26.3281L211.677 27.1895C209.934 27.5586 208.45 27.627 205.948 27.6133H205.005V22.6641H210.405ZM206.195 29.5684V28.6934H213.946V31.6875H207.275V33.0684H214.398V33.9434H206.222V30.8398H212.88V29.5684H206.195ZM212.88 28.0918V21.9531H213.946V24.5371H215.779V25.4258H213.946V28.0918H212.88ZM220.528 23.8672C220.514 25.6035 221.751 27.1279 223.536 27.7363L222.934 28.5703C221.594 28.0713 220.541 27.0801 220.015 25.8018C219.496 27.2578 218.388 28.3857 216.918 28.9395L216.33 28.0645C218.204 27.4082 219.448 25.7949 219.461 23.9082V22.6504H220.528V23.8672ZM218.313 31.8105C218.306 30.3477 219.858 29.5068 222.387 29.5137C224.91 29.5068 226.461 30.3477 226.461 31.8105C226.461 33.2598 224.91 34.0801 222.387 34.0801C219.858 34.0801 218.306 33.2598 218.313 31.8105ZM219.379 31.8105C219.372 32.6924 220.521 33.2256 222.387 33.2188C224.246 33.2256 225.395 32.6924 225.395 31.8105C225.395 30.9014 224.246 30.3613 222.387 30.3613C220.521 30.3613 219.372 30.9014 219.379 31.8105ZM222.633 25.4531V24.5645H225.34V21.9531H226.42V29.1582H225.34V25.4531H222.633ZM238.662 21.9531V34.1074H237.623V21.9531H238.662ZM228.394 27.2031C228.401 24.6191 229.426 22.9854 231.005 22.9785C232.482 22.9854 233.48 24.4072 233.617 26.6973H235.189V22.2129H236.214V33.4922H235.189V27.5859H233.624C233.521 29.9512 232.503 31.4346 231.005 31.4277C229.426 31.4346 228.401 29.7871 228.394 27.2031ZM229.406 27.2031C229.392 29.1719 230.021 30.416 231.005 30.4023C231.997 30.416 232.626 29.1719 232.619 27.2031C232.626 25.2275 231.997 23.9902 231.005 23.9902C230.021 23.9902 229.392 25.2275 229.406 27.2031ZM23.541 41.9531V48.2695H22.4609V41.9531H23.541ZM13.6973 46.9434C14.1826 46.9434 14.709 46.9365 15.2559 46.9297V43.6484H14.0391V42.7871H20.6152V43.6484H19.3848V46.7656C20.0137 46.7178 20.6289 46.6562 21.2168 46.5879L21.2715 47.3809C18.8379 47.7432 15.9805 47.8389 13.834 47.832L13.6973 46.9434ZM15.584 49.7188V48.8574H23.541V51.7559H16.6777V53.0957H24.0059V53.9707H15.625V50.9492H22.4746V49.7188H15.584ZM16.2949 46.9092C16.9648 46.8887 17.6553 46.8682 18.3457 46.8271V43.6484H16.2949V46.9092ZM36.5207 51.6465V52.5488H25.3918V51.6465H28.1535V48.3721C27.1145 47.832 26.4855 46.957 26.4855 45.8496C26.4855 43.9697 28.3313 42.7324 30.9289 42.7188C33.5266 42.7324 35.3723 43.9697 35.3723 45.8496C35.3723 46.9365 34.7639 47.7979 33.759 48.3379V51.6465H36.5207ZM27.5246 45.8496C27.5178 47.21 28.9328 48.1191 30.9289 48.1191C32.9045 48.1191 34.3332 47.21 34.3332 45.8496C34.3332 44.4893 32.9045 43.5938 30.9289 43.6074C28.9328 43.5938 27.5178 44.4893 27.5246 45.8496ZM29.2063 51.6465H32.6789V48.7549C32.1525 48.8916 31.5646 48.9668 30.9289 48.9668C30.3068 48.9668 29.7258 48.8984 29.2063 48.7617V51.6465ZM46.7934 41.9668V45.9727H48.6254V46.875H46.7934V51.0723H45.727V41.9668H46.7934ZM37.3188 44.332V43.457H40.4086V41.9668H41.475V43.457H44.5648V44.332H37.3188ZM38.016 47.2715C38.0092 45.8906 39.185 45.002 40.9418 45.002C42.6781 45.002 43.8539 45.8906 43.8676 47.2715C43.8539 48.6387 42.6781 49.5205 40.9418 49.5137C39.185 49.5205 38.0092 48.6387 38.016 47.2715ZM39.0414 47.2715C39.0346 48.126 39.7934 48.6797 40.9418 48.666C42.0766 48.6797 42.8422 48.126 42.8559 47.2715C42.8422 46.4033 42.0766 45.8428 40.9418 45.8496C39.7934 45.8428 39.0346 46.4033 39.0414 47.2715ZM39.1918 53.8477V50.3477H40.2445V52.9453H47.3539V53.8477H39.1918ZM63.5789 48.2559V49.1445H52.5047V48.2559H57.5086V46.7383H58.5613V48.2559H63.5789ZM53.1473 46.5059C55.4236 46.2939 57.3514 45.3711 57.4471 44.0176H53.6531V43.1426H57.5086V41.9258H58.5613V43.1426H62.4578V44.0176H58.6297C58.7186 45.3711 60.6531 46.2939 62.9227 46.5059L62.5945 47.3398C60.5848 47.1279 58.7801 46.4033 58.0418 45.1797C57.2967 46.4033 55.4988 47.1279 53.4891 47.3398L53.1473 46.5059ZM53.8445 52.0703C53.8377 50.7646 55.3963 50.0605 58.0418 50.0605C60.6736 50.0605 62.2117 50.7646 62.2254 52.0703C62.2117 53.376 60.6736 54.0801 58.0418 54.0801C55.3963 54.0801 53.8377 53.376 53.8445 52.0703ZM54.9383 52.0703C54.9246 52.8359 56.073 53.2598 58.0418 53.2461C59.99 53.2598 61.1385 52.8359 61.1453 52.0703C61.1385 51.3047 59.99 50.874 58.0418 50.8672C56.073 50.874 54.9246 51.3047 54.9383 52.0703ZM77.7941 41.9668V49.2676H76.7141V47.627H73.4875V46.7383H76.7141V45.0977H73.6105C72.8107 47.0527 70.9377 48.4678 68.3332 49.2402L67.882 48.3926C70.8146 47.5244 72.6535 45.877 72.8654 43.7715H68.4973V42.8691H74.0344C74.0344 43.3477 73.9797 43.8057 73.8771 44.2363H76.7141V41.9668H77.7941ZM69.7551 51.7148C69.7482 50.2656 71.3273 49.3906 73.8156 49.3906C76.2766 49.3906 77.8625 50.2656 77.8625 51.7148C77.8625 53.1709 76.2766 54.0527 73.8156 54.0527C71.3273 54.0527 69.7482 53.1709 69.7551 51.7148ZM70.8078 51.7148C70.8146 52.6309 71.9836 53.1846 73.8156 53.1777C75.6203 53.1846 76.7893 52.6309 76.7961 51.7148C76.7893 50.7988 75.6203 50.2451 73.8156 50.252C71.9836 50.2451 70.8146 50.7988 70.8078 51.7148ZM89.6937 41.9531V49.3223H88.6137V46.5469H86.5492V45.6582H88.6137V41.9531H89.6937ZM79.6312 44.1133V43.2383H82.6527V41.8438H83.7055V43.2383H86.727V44.1133H79.6312ZM80.3559 46.9023C80.3559 45.6309 81.5248 44.7422 83.1723 44.7422C84.8266 44.7422 85.9887 45.6309 86.0023 46.9023C85.9887 48.2148 84.8266 49.0762 83.1723 49.0762C81.5248 49.0762 80.3559 48.2148 80.3559 46.9023ZM81.3812 46.9023C81.3812 47.709 82.1127 48.2422 83.1723 48.2559C84.2318 48.2422 84.9633 47.709 84.9633 46.9023C84.9633 46.123 84.2318 45.5762 83.1723 45.5762C82.1127 45.5762 81.3812 46.123 81.3812 46.9023ZM81.7504 53.9434V49.9785H89.6937V53.9434H81.7504ZM82.8168 53.0684H88.641V50.8398H82.8168V53.0684ZM101.539 41.9531V54.1074H100.459V41.9531H101.539ZM91.7633 50.9219C93.568 50.1016 94.9488 48.0508 94.9488 45.918V44.9473H92.0914V44.0723H94.9352V42.1855H96.0016V44.0723H98.8316V44.9473H96.0016V45.918C96.0016 47.9551 97.4234 49.9238 99.2555 50.7031L98.6539 51.5371C97.2457 50.915 96.0631 49.6025 95.4957 47.9961C94.9488 49.6914 93.773 51.0928 92.3648 51.7559L91.7633 50.9219Z" fill="white"/>
</svg>
